<?xml version="1.0" encoding="utf-8"?>
<!-- Svg Vector Icons : http://www.onlinewebfonts.com/icon -->
<!DOCTYPE svg PUBLIC "-//W3C//DTD SVG 1.1//EN" "http://www.w3.org/Graphics/SVG/1.1/DTD/svg11.dtd">
<svg version="1.1" xmlns="http://www.w3.org/2000/svg" xmlns:xlink="http://www.w3.org/1999/xlink" x="0px" y="0px" viewBox="0 0 256 256" enable-background="new 0 0 256 256" xml:space="preserve">
<metadata> Svg Vector Icons : http://www.onlinewebfonts.com/icon </metadata>
<g><g><path fill="#fffcfc" d="M184.2,55C178,55,173,60,173,66.2c0,3.8,1.9,7.2,4.8,9.2c-4.3,23.5-25,41.4-49.7,41.4c-24.8,0-45.4-17.9-49.7-41.4c2.9-2,4.8-5.4,4.8-9.2C83,60,78,55,71.8,55c-6.2,0-11.2,5-11.2,11.2c0,4.5,2.6,8.4,6.5,10.2c4.9,29.3,30.4,51.6,61,51.6c30.6,0,56.1-22.4,61-51.6c3.8-1.8,6.5-5.7,6.5-10.2C195.4,60,190.4,55,184.2,55z M223.6,10H32.5C20.1,10,10,20.1,10,32.5v191.1c0,12.4,10.1,22.5,22.5,22.5h191.1c12.4,0,22.5-10.1,22.5-22.5V32.5C246,20.1,235.9,10,223.6,10z M234.8,223.6c0,6.2-5,11.2-11.2,11.2H32.5c-6.2,0-11.2-5-11.2-11.2V32.5c0-6.2,5-11.2,11.2-11.2h191.1c6.2,0,11.2,5,11.2,11.2V223.6z"/></g></g>
</svg>