<?xml version="1.0" encoding="utf-8"?>
<!-- Svg Vector Icons : http://www.onlinewebfonts.com/icon -->
<!DOCTYPE svg PUBLIC "-//W3C//DTD SVG 1.1//EN" "http://www.w3.org/Graphics/SVG/1.1/DTD/svg11.dtd">
<svg version="1.1" xmlns="http://www.w3.org/2000/svg" xmlns:xlink="http://www.w3.org/1999/xlink" x="0px" y="0px" viewBox="0 0 256 256" enable-background="new 0 0 256 256" xml:space="preserve">
<metadata> Svg Vector Icons : http://www.onlinewebfonts.com/icon </metadata>
<g><g><g><path fill="#ffffff" d="M11.7,2.9c-2.3,2.4-2.2,6.6,0.1,8.7c0.9,0.8,3.4,2.2,5.5,3c2.1,0.9,10,4.2,17.6,7.4l13.9,5.8l0.2,81.7l0.2,81.8l2.1,4.3c3.9,8,11.8,14.3,19.5,15.5c2.5,0.4,3,0.8,2.6,1.7c-2.8,6.3-3.5,9.9-3.2,16c0.2,5.5,0.7,7.1,2.9,11.2c10.9,20.3,39.6,19.6,49.6-1.4c2.1-4.4,2.4-5.6,2.4-11.8c-0.1-5.4-0.4-7.6-1.7-10.6c-0.9-2-1.7-3.8-1.7-3.9c0-0.2,14.7-0.3,32.7-0.3c30.9,0,32.7,0.1,32.2,1.3c-3.3,7.9-3.6,9-3.3,15c0.9,16.9,14.8,28.3,32,26c8.7-1.1,16.5-7.1,20.7-15.5c2-4,2.2-5.2,2.2-11.7c0-6.6-0.2-7.7-2.4-12.2c-3-6-7.7-10.6-13.7-13.4l-4.3-2.1l-72.9-0.4c-81.1-0.5-75,0-79.9-5.6c-3.3-3.8-3.9-6.9-3.9-19.4c0-10,0.1-10.9,1.4-10.3c0.7,0.3,3,1.3,5.1,2.2c3.8,1.6,4.4,1.6,75.5,1.8c46.8,0.2,73.8-0.1,77.7-0.5c10.9-1.4,18.1-6.8,22.8-16.7l2.4-5l0.2-32.6c0.2-18,0.1-33.4-0.2-34.4c-1.2-4.8-7.1-6.5-10.6-2.9l-1.9,1.8v32.5c0,29.8-0.2,32.7-1.4,35.5c-1.7,3.9-6,7.7-9.7,8.7c-4,1.1-146,1.1-150.1,0c-3.8-1.1-9-6.2-10.2-10.2c-0.7-2.4-0.9-17.8-0.9-63.2c0-56-0.1-60-1.3-61.5C57.7,17.4,18.8,1.1,15.7,1.1C14.2,1.1,12.7,1.7,11.7,2.9z M103.6,213.2c3,1.3,7,5.4,8,8.3c1.3,3.4,1,9.4-0.6,12.5c-6,11.6-21.9,11.1-27.5-1c-2.4-5.1-1.6-10.3,2.1-15.4C89.3,212.7,97.6,210.6,103.6,213.2z M217.8,213.7c3.7,1.8,7.3,6.6,8,11c0.8,3.9-1.3,10.1-4.3,13c-6.3,6.1-15.2,6.3-21.3,0.4c-3.3-3-4.6-6.1-4.6-10.9C195.5,215.9,207.4,208.7,217.8,213.7z"/><path fill="#ffffff" d="M113.8,35.5c-6.9,2-12.6,7.4-14.9,14.1c-1.3,3.6-1.1,11,0.2,14.3c3.9,9.3,11.2,14.1,21,14c6-0.1,11.3-2.5,15.3-7c7.7-8.5,7.7-20.3,0.2-28.7C129.9,36,121.6,33.4,113.8,35.5z M123.9,48.6c3,1.6,4.6,4,4.6,7.4c0,7.7-7.1,12-13.5,8.1c-1.4-0.8-3-2.8-3.6-4.3C108,52,116.2,44.6,123.9,48.6z"/><path fill="#ffffff" d="M141.9,76.9c-34.4,34.3-38.6,38.8-38.6,40.8c0,1.3,0.7,3.3,1.6,4.4c1.2,1.6,2.2,2,4.7,2c3.2,0,3.2,0,41.3-38.2c36.9-36.9,38.2-38.3,38.2-41c0-3.7-2.7-6.6-6.2-6.6C180.6,38.3,177.1,41.7,141.9,76.9z"/><path fill="#ffffff" d="M169.8,83.8c-14.8,3.6-21.2,20.7-12.7,33.7c4.1,6.1,11,9.3,19.5,8.7c11.6-0.8,19.6-9.3,19.7-21.1C196.4,91.1,183.2,80.5,169.8,83.8z M179.3,97.1c3.1,1.6,4.9,5.2,4.3,9c-0.5,3.6-3,6.4-6.8,7.5c-3.7,1.1-7.5-0.5-9.7-4.1C162.3,101.5,170.9,92.8,179.3,97.1z"/></g></g></g>
</svg>