<?xml version="1.0" encoding="utf-8"?>
<!-- Svg Vector Icons : http://www.onlinewebfonts.com/icon -->
<!DOCTYPE svg PUBLIC "-//W3C//DTD SVG 1.1//EN" "http://www.w3.org/Graphics/SVG/1.1/DTD/svg11.dtd">
<svg version="1.1" xmlns="http://www.w3.org/2000/svg" xmlns:xlink="http://www.w3.org/1999/xlink" x="0px" y="0px" viewBox="0 0 256 256" enable-background="new 0 0 256 256" xml:space="preserve">
<metadata> Svg Vector Icons : http://www.onlinewebfonts.com/icon </metadata>
<g><g><g><path fill="#000000" d="M116.7,10.5c-26.9,2.6-52.9,14.8-72.2,34.1C8.4,80.8-0.4,136.3,23,181.9c5.3,10.4,13.2,21.2,21.6,29.6c33.3,33.2,82.5,43.5,126.6,26.5c14.4-5.6,29-15.1,40.3-26.5c36.2-36.2,44.9-91.7,21.6-137.4c-5.3-10.3-13-21-21.6-29.6C186.7,19.8,151.7,7.2,116.7,10.5z M143.9,25.2c37.8,6.3,68.7,32,82,68c2.1,5.6,4.2,13.7,5.2,20.6c1.2,7.2,1.2,21.3,0,28.6c-3.5,22.9-13.5,42.7-29.8,59c-16.3,16.3-36.1,26.3-59,29.8c-7.2,1.2-21.3,1.2-28.6,0c-34.8-5.3-64.2-26.9-79.3-58.1c-7.3-15.2-10.3-28.2-10.3-45c0-16.7,3-30,10.3-45c15.1-31.1,44.8-53,78.8-58c7.1-1.1,8.2-1.1,17.1-0.9C135.5,24.2,140.4,24.6,143.9,25.2z"/><path fill="#000000" d="M120.9,97.6L90.4,128l29.8,29.8l29.9,29.9l4.8-4.8l4.8-4.8l-24.9-24.9l-25-25l9.6-9.4c5.3-5.2,16.8-16.4,25.6-25l16-15.6l-4.7-5.2c-2.6-2.8-4.8-5.3-4.9-5.4C151.4,67.3,137.6,80.9,120.9,97.6z"/></g></g></g>
</svg>